<?xml version="1.0" encoding="utf-8"?>
<!-- Generator: Adobe Illustrator 16.0.0, SVG Export Plug-In . SVG Version: 6.00 Build 0)  -->
<!DOCTYPE svg PUBLIC "-//W3C//DTD SVG 1.1//EN" "http://www.w3.org/Graphics/SVG/1.1/DTD/svg11.dtd">
<svg version="1.1" id="Layer_1" xmlns="http://www.w3.org/2000/svg" xmlns:xlink="http://www.w3.org/1999/xlink" x="0px" y="0px"
	 width="1024px" height="768px" viewBox="0 0 1024 768" enable-background="new 0 0 1024 768" xml:space="preserve">
<path fill="#93C840" d="M709.177,295.625c0,109.066-88.417,197.503-197.504,197.503c-109.074,0-197.499-88.438-197.499-197.503
	c0-109.079,88.425-197.52,197.499-197.52C620.76,98.104,709.177,186.546,709.177,295.625"/>
<path d="M511.673,111.304c-101.63,0-184.306,82.692-184.306,184.321c0,101.633,82.675,184.317,184.306,184.317
	c101.638,0,184.312-82.684,184.312-184.317C695.985,193.996,613.311,111.304,511.673,111.304 M511.673,506.323
	c-116.178,0-210.69-94.509-210.69-210.699c0-116.182,94.512-210.711,210.69-210.711c116.183,0,210.708,94.529,210.708,210.711
	C722.381,411.814,627.855,506.323,511.673,506.323"/>
<path d="M513.412,480.58c-3.378,0-6.761-1.286-9.333-3.863c-5.146-5.148-5.146-13.508,0-18.661l100.187-100.188
	c5.148-5.155,13.495-5.155,18.656,0c5.153,5.148,5.153,13.498,0,18.655L522.74,476.717
	C520.16,479.294,516.781,480.58,513.412,480.58"/>
<path d="M503.098,434.771c-3.387,0-6.756-1.277-9.335-3.862l-83.001-83.003c-5.155-5.149-5.155-13.506,0-18.666
	c5.159-5.146,13.498-5.146,18.655,0l83.014,83.007c5.148,5.149,5.148,13.513,0,18.662
	C509.846,433.493,506.47,434.771,503.098,434.771"/>
<path d="M524.877,673.624c0,5.636-4.573,10.213-10.221,10.213h-5.961c-5.648,0-10.219-4.577-10.219-10.213V266.761
	c0-5.642,4.571-10.202,10.219-10.202h5.961c5.647,0,10.221,4.561,10.221,10.202V673.624z"/>
<g>
	<path fill="#FFFFFF" d="M368.529,186.971c2.475-21.919,14.467-28.521-5.828-27.533c-20.292-0.997-8.303,5.614-5.828,27.533
		c-2.475,21.919-14.469,28.529,5.828,27.533C382.998,215.494,371.004,208.877,368.529,186.971z"/>
	<path fill="#FFFFFF" d="M362.702,181.144c-21.919-2.475-28.519-14.465-27.531,5.828c-0.999,20.292,5.612,8.302,27.531,5.828
		c21.921,2.475,28.532,14.469,27.533-5.828C391.227,166.675,384.608,178.668,362.702,181.144z"/>
	<circle fill="#FBB03B" cx="362.703" cy="186.971" r="9.315"/>
</g>
<g>
	<path fill="#FFFFFF" d="M675.788,391.847c2.479-21.919,14.469-28.521-5.825-27.533c-20.295-0.997-8.305,5.614-5.826,27.533
		c-2.479,21.919-14.469,28.531,5.826,27.532C690.257,420.369,678.268,413.753,675.788,391.847z"/>
	<path fill="#FFFFFF" d="M669.963,386.019c-21.919-2.475-28.52-14.464-27.529,5.828c-0.998,20.29,5.61,8.3,27.529,5.829
		c21.919,2.471,28.531,14.469,27.533-5.829C698.49,371.55,691.869,383.544,669.963,386.019z"/>
	<circle fill="#FBB03B" cx="669.965" cy="391.847" r="9.313"/>
</g>
<g>
	<path fill="#FFFFFF" d="M604.988,125.762c2.475-21.919,14.465-28.521-5.825-27.533c-20.295-0.997-8.305,5.614-5.83,27.533
		c-2.475,21.919-14.469,28.529,5.83,27.533C619.457,154.285,607.463,147.668,604.988,125.762z"/>
	<path fill="#FFFFFF" d="M599.163,119.935c-21.923-2.475-28.523-14.465-27.533,5.828c-0.999,20.292,5.61,8.302,27.533,5.828
		c21.919,2.475,28.531,14.469,27.532-5.828C627.686,105.466,621.069,117.459,599.163,119.935z"/>
	<path fill="#FBB03B" d="M608.479,125.762c0,5.144-4.176,9.313-9.315,9.313c-5.149,0-9.316-4.169-9.316-9.313
		c0-5.145,4.167-9.314,9.316-9.314C604.303,116.448,608.479,120.618,608.479,125.762z"/>
</g>
<g>
	<path fill="#FFFFFF" d="M577.358,293.021c2.479-21.919,14.469-28.521-5.826-27.533c-20.294-0.996-8.305,5.614-5.825,27.533
		c-2.479,21.919-14.473,28.529,5.825,27.533C591.827,321.543,579.837,314.927,577.358,293.021z"/>
	<path fill="#FFFFFF" d="M571.532,287.193c-21.919-2.475-28.519-14.464-27.528,5.828c-0.998,20.292,5.609,8.303,27.528,5.828
		c21.919,2.475,28.532,14.469,27.533-5.828C600.06,272.724,593.438,284.718,571.532,287.193z"/>
	<circle fill="#FBB03B" cx="571.535" cy="293.021" r="9.314"/>
</g>
<g>
	<path fill="#FFFFFF" d="M386.844,427.625c2.475-21.919,14.467-28.519-5.828-27.533c-20.292-0.994-8.303,5.614-5.828,27.533
		c-2.475,21.919-14.469,28.527,5.828,27.533C401.312,456.147,389.318,449.531,386.844,427.625z"/>
	<path fill="#FFFFFF" d="M381.016,421.799c-21.919-2.479-28.521-14.469-27.531,5.826c-0.999,20.294,5.612,8.305,27.531,5.825
		c21.921,2.479,28.532,14.469,27.533-5.825C409.541,407.33,402.922,419.32,381.016,421.799z"/>
	<circle fill="#FBB03B" cx="381.017" cy="427.625" r="9.315"/>
</g>
</svg>
