<?xml version="1.0" encoding="utf-8"?>
<!-- Generator: Adobe Illustrator 16.0.0, SVG Export Plug-In . SVG Version: 6.00 Build 0)  -->
<!DOCTYPE svg PUBLIC "-//W3C//DTD SVG 1.1//EN" "http://www.w3.org/Graphics/SVG/1.1/DTD/svg11.dtd">
<svg version="1.1" id="Layer_1" xmlns="http://www.w3.org/2000/svg" xmlns:xlink="http://www.w3.org/1999/xlink" x="0px" y="0px"
	 width="1024px" height="768px" viewBox="0 0 1024 768" enable-background="new 0 0 1024 768" xml:space="preserve">
<g>
	<path fill="#006837" d="M450.013,126.936c0,0-1.885,10.893,12.219,16.249C462.232,143.184,465.133,131.75,450.013,126.936z"/>
	<path fill="#42210B" d="M498.381,503.119l-0.107-1.208c-0.242-2.591-1.523-5.062-3.742-6.772l-60-46.263l-17.614-91.17
		c-0.22-1.112-1.242-1.913-2.393-1.801c-1.225,0.107-2.127,1.191-2.015,2.421l8.793,95.425c0.136,1.395,0.757,2.766,1.84,3.811
		l0.525,0.49l52.493,50.163l-0.796,146.158c0,0.491,0.022,1.01,0.068,1.518c0.717,7.812,7.63,13.557,15.441,12.835
		c7.817-0.723,13.556-7.653,12.84-15.453L498.381,503.119z"/>
	<path fill="#603813" d="M643.749,353.033c-2.788-0.745-5.661,0.915-6.405,3.703L608.91,467.422l-50.891,5.147
		c-4.222,0.812-7.586,4.312-8.037,8.798l-0.146,1.451l-7.749,170.364c-0.057,0.576-0.097,1.247-0.073,1.852
		c0.158,8.657,7.314,15.565,15.982,15.401c8.664-0.152,15.566-7.309,15.414-15.977l-1.281-163.406l44.197-6.281l0.665-0.227
		c2.071-0.756,3.731-2.494,4.272-4.797l26.222-120.462C648.135,356.549,646.48,353.767,643.749,353.033z"/>
	<g>
		<path fill="#006837" d="M517.733,378.735c0,29.596-23.992,53.593-53.594,53.593c-29.596,0-53.588-23.997-53.588-53.593
			c0-29.602,23.992-53.594,53.588-53.594C493.742,325.141,517.733,349.133,517.733,378.735z"/>
		<path fill="#006837" d="M477.199,369.417c0,29.602-23.997,53.594-53.594,53.594c-29.607,0-53.604-23.992-53.604-53.594
			c0-29.607,23.997-53.594,53.604-53.594C453.202,315.823,477.199,339.81,477.199,369.417z"/>
		<path fill="#006837" d="M445.063,333.939c0,29.607-23.998,53.594-53.594,53.594c-29.607,0-53.594-23.986-53.594-53.594
			c0-29.596,23.986-53.594,53.594-53.594C421.066,280.346,445.063,304.344,445.063,333.939z"/>
		<path fill="#006837" d="M629.199,378.678c0,29.602-23.998,53.594-53.594,53.594c-29.597,0-53.594-23.992-53.594-53.594
			s23.997-53.594,53.594-53.594C605.201,325.084,629.199,349.076,629.199,378.678z"/>
		<path fill="#006837" d="M668.107,368.802c0,29.597-23.997,53.588-53.594,53.588c-29.607,0-53.594-23.991-53.594-53.588
			c0-29.607,23.986-53.605,53.594-53.605C644.11,315.196,668.107,339.194,668.107,368.802z"/>
		<path fill="#006837" d="M691.738,346.621c0,29.597-24.003,53.594-53.6,53.594c-29.602,0-53.6-23.997-53.6-53.594
			c0-29.602,23.998-53.594,53.6-53.594C667.735,293.027,691.738,317.02,691.738,346.621z"/>
		<path fill="#006837" d="M702.371,321.93c0,29.602-24.003,53.594-53.6,53.594c-29.596,0-53.588-23.992-53.588-53.594
			c0-29.602,23.992-53.594,53.588-53.594C678.368,268.336,702.371,292.328,702.371,321.93z"/>
	</g>
	<path fill="#42210B" d="M595.539,329.34c-1.27-0.203-2.461,0.655-2.664,1.919l-13.172,80.289l-40.122,26.046
		c-0.897,0.599-1.817,1.344-2.597,2.15c-5.711,5.909-5.536,15.335,0.379,21.041c5.914,5.7,15.328,5.536,21.034-0.385l35.273-36.565
		l1.259-1.315c1.219-1.27,1.976-2.985,1.981-4.876l0.575-85.995C597.492,330.514,596.686,329.526,595.539,329.34z"/>
	<path fill="#603813" d="M493.713,429.523l-34.128-29.884l-12.332-53.786c-0.254-1.117-1.332-1.879-2.483-1.715
		c-1.225,0.175-2.065,1.298-1.896,2.517l7.93,56.269c0.067,0.469,0.231,0.943,0.508,1.36l0.553,0.847l25.279,38.768
		c0.531,0.818,1.213,1.62,1.981,2.285c4.611,4.036,11.598,3.573,15.628-1.032C498.781,440.54,498.319,433.548,493.713,429.523z"/>
	<path fill="#754C24" d="M602.188,678.608c-27.857,0-28.23-83.14-28.23-83.14l-18.946-265.214h-67.178l-18.941,265.214
		c0,0-3.646,83.14-28.225,83.14H602.188z"/>
	<path opacity="0.3" fill="#603813" d="M499.126,406.187c10.582,9.447,26.825,13.077,39.383,2.116l15.413,270.306h48.266
		c-27.857,0-28.23-83.14-28.23-83.14l-18.946-265.214h-67.178l-18.941,265.214c0,0-3.646,83.14-28.225,83.14h46.155L499.126,406.187
		z"/>
	
		<line fill="none" stroke="#42210B" stroke-width="0.8016" stroke-linecap="round" stroke-linejoin="round" stroke-miterlimit="10" x1="495.475" y1="380.874" x2="488.183" y2="483.275"/>
	
		<line fill="none" stroke="#42210B" stroke-width="0.8016" stroke-linecap="round" stroke-linejoin="round" stroke-miterlimit="10" x1="510.571" y1="401.524" x2="512.259" y2="432.752"/>
	
		<line fill="none" stroke="#42210B" stroke-width="0.8016" stroke-linecap="round" stroke-linejoin="round" stroke-miterlimit="10" x1="535.788" y1="508.966" x2="538.497" y2="586.461"/>
	
		<line fill="none" stroke="#42210B" stroke-width="0.8016" stroke-linecap="round" stroke-linejoin="round" stroke-miterlimit="10" x1="512.417" y1="353.834" x2="509.708" y2="385"/>
	
		<line fill="none" stroke="#42210B" stroke-width="0.8016" stroke-linecap="round" stroke-linejoin="round" stroke-miterlimit="10" x1="489.537" y1="511.416" x2="486.822" y2="588.895"/>
	
		<line fill="none" stroke="#42210B" stroke-width="0.8016" stroke-linecap="round" stroke-linejoin="round" stroke-miterlimit="10" x1="540.597" y1="371.149" x2="557.387" y2="659.063"/>
	<path fill="#009245" d="M543.113,243.125c0,36.408-29.506,65.92-65.914,65.92s-65.92-29.512-65.92-65.92
		c0-36.403,29.512-65.92,65.92-65.92S543.113,206.722,543.113,243.125z"/>
	<path fill="#42210B" d="M522.04,445.976c-11.237-6.451-9.132,39.586,0,41.403C531.166,489.213,542.16,457.528,522.04,445.976z"/>
	
		<path fill="none" stroke="#42210B" stroke-width="0.8016" stroke-linecap="round" stroke-linejoin="round" stroke-miterlimit="10" d="
		M538.509,485.753c-2.095,5.497-8.591,10.729-14.629,10.464"/>
	<path fill="#009245" d="M705.628,301.302c0-19.048-9.956-35.726-24.917-45.23c-0.604-22.942-15.6-42.25-36.308-49.288
		c0.926-4.402,1.429-8.962,1.429-13.635c0-35.748-28.49-64.786-63.979-65.824c-10.436-22.643-33.282-38.389-59.842-38.389
		c-30.669,0-56.365,20.967-63.736,49.333c-1.823-0.152-3.652-0.276-5.525-0.276c-36.403,0-65.915,29.511-65.915,65.92
		c0,3.352,0.333,6.631,0.808,9.848c-17.733,8.737-29.969,26.944-29.969,48.063c0,2.901,0.299,5.729,0.745,8.511
		c-17.648,8.771-29.811,26.932-29.811,47.978c0,29.602,23.992,53.599,53.588,53.599c3.538,0,6.987-0.372,10.333-1.016
		c11.135,8.629,25.087,13.811,40.269,13.811c20.306,0,38.451-9.183,50.546-23.625c10.447,6.947,22.976,11.011,36.453,11.011
		c12.242,0,23.653-3.392,33.474-9.193c12.062,13.376,29.483,21.841,48.915,21.841c23.196,0,43.554-12.004,55.299-30.116
		C684.531,351.887,705.628,329.063,705.628,301.302z"/>
	<g opacity="0.1">
		<path d="M657.486,331.456c-11.745,18.111-32.103,30.127-55.299,30.127c-19.432,0-36.854-8.466-48.915-21.847
			c-9.82,5.808-21.231,9.194-33.474,9.194c-13.477,0-26.006-4.058-36.453-11.011c-12.095,14.431-30.24,23.63-50.546,23.63
			c-15.182,0-29.134-5.192-40.269-13.822c-3.347,0.655-6.795,1.021-10.333,1.021c-25.64,0-47.042-18.026-52.318-42.075
			c-0.83,3.742-1.27,7.642-1.27,11.638c0,29.602,23.992,53.599,53.588,53.599c3.538,0,6.987-0.372,10.333-1.016
			c11.135,8.629,25.087,13.811,40.269,13.811c20.306,0,38.451-9.183,50.546-23.625c10.447,6.947,22.976,11.011,36.453,11.011
			c12.242,0,23.653-3.392,33.474-9.193c12.062,13.376,29.483,21.841,48.915,21.841c23.196,0,43.554-12.004,55.299-30.116
			c27.045-2.737,48.142-25.561,48.142-53.322c0-3.945-0.524-7.755-1.332-11.463C699.335,312.081,680.609,329.12,657.486,331.456z"/>
		<path fill="#006837" d="M644.403,183.627c0.231,0.074,0.463,0.175,0.706,0.265c-0.125-0.812-0.231-1.625-0.373-2.432
			C644.612,182.183,644.545,182.917,644.403,183.627z"/>
	</g>
	<path fill="#006837" d="M400.41,192.212c0,0-6.897,8.624,2.878,20.131C403.288,212.343,411.336,203.703,400.41,192.212z"/>
	<path fill="#006837" d="M378.991,228.191c0,0-1.885,10.893,12.225,16.26C391.216,244.451,394.111,233.005,378.991,228.191z"/>
	<path fill="#006837" d="M448.535,161.284c0,0-6.885,8.629,2.889,20.137C451.424,181.421,459.472,172.786,448.535,161.284z"/>
	<path fill="#006837" d="M427.133,197.274c0,0-1.891,10.881,12.219,16.249C439.352,213.523,442.247,202.089,427.133,197.274z"/>
	<path fill="#006837" d="M610.631,226.453c0,0-6.891,8.624,2.879,20.137C613.51,246.59,621.558,237.955,610.631,226.453z"/>
	<path fill="#006837" d="M589.219,262.443c0,0-1.886,10.887,12.225,16.243C601.443,278.687,604.332,267.252,589.219,262.443z"/>
	<path fill="#006837" d="M485.937,295.945c0,0-6.067-9.233-20.03-3.51C465.906,292.435,471.618,302.769,485.937,295.945z"/>
	<path fill="#006837" d="M458.36,264.419c0,0-9.758-5.164-19.24,6.586C439.121,271.005,449.099,277.304,458.36,264.419z"/>
	<path fill="#006837" d="M366.281,281.717c0,0-9.758-5.169-19.234,6.592C347.047,288.31,357.025,294.597,366.281,281.717z"/>
	<path fill="#006837" d="M411.759,286.345c0,0-9.758-5.169-19.229,6.586C392.531,292.932,402.503,299.23,411.759,286.345z"/>
	<path fill="#006837" d="M403.345,423.716c0,0-11.886,1.722-9.51,18.077C393.834,441.793,406.838,440.907,403.345,423.716z"/>
	<path fill="#006837" d="M322.604,342.812c0,0-9.29,7.619,1.191,20.392C323.795,363.203,334.467,355.725,322.604,342.812z"/>
	<path fill="#006837" d="M618.725,548.05c0,0-9.764-5.17-19.234,6.586C599.49,554.636,609.463,560.929,618.725,548.05z"/>
	<path fill="#006837" d="M607.098,445.434c0,0-9.752-5.17-19.234,6.586C587.863,452.02,597.848,458.312,607.098,445.434z"/>
	<path fill="#006837" d="M460.116,505.473c0,0-9.764-5.164-19.246,6.58C440.87,512.053,450.86,518.363,460.116,505.473z"/>
	<path fill="#006837" d="M520.905,220.059c0,0-6.062-9.233-20.035-3.505C500.87,216.554,506.587,226.882,520.905,220.059z"/>
	<path fill="#39B54A" d="M545.806,248.108c0,0-6.067-9.233-20.035-3.505C525.771,244.604,531.487,254.938,545.806,248.108z"/>
	<path fill="#39B54A" d="M548.526,128.465c0,0-6.067-9.233-20.03-3.511C528.496,124.954,534.208,135.288,548.526,128.465z"/>
	<path fill="#39B54A" d="M485.937,162.813c0,0-6.067-9.239-20.03-3.504C465.906,159.309,471.618,169.631,485.937,162.813z"/>
	<path fill="#39B54A" d="M448.258,305.811c0,0-6.062-9.233-20.035-3.504C428.223,302.306,433.939,312.64,448.258,305.811z"/>
	<path fill="#39B54A" d="M458.276,231.544c0,0-6.067-9.233-20.042-3.511C438.234,228.033,443.958,238.373,458.276,231.544z"/>
	<path fill="#39B54A" d="M395.686,265.887c0,0-6.056-9.233-20.03-3.505C375.656,262.382,381.367,272.715,395.686,265.887z"/>
	<path fill="#39B54A" d="M519.721,335.469c0,0-6.062-9.239-20.03-3.505C499.69,331.964,505.402,342.292,519.721,335.469z"/>
	<path fill="#39B54A" d="M599.151,193.73c0,0-6.062-9.233-20.036-3.505C579.115,190.225,584.827,200.554,599.151,193.73z"/>
	<path fill="#39B54A" d="M584.354,294.924c0,0-6.062-9.239-20.03-3.511C564.323,291.413,570.035,301.747,584.354,294.924z"/>
	<path fill="#006837" d="M493.33,188.532c0,0-9.764-5.164-19.24,6.586C474.09,195.118,484.068,201.417,493.33,188.532z"/>
	<path fill="#006837" d="M631.683,170.923c0,0-6.062-9.233-20.036-3.51C611.646,167.413,617.353,177.747,631.683,170.923z"/>
	<path fill="#006837" d="M604.096,139.402c0,0-9.753-5.175-19.229,6.581C584.867,145.983,594.846,152.276,604.096,139.402z"/>
	<path fill="#006837" d="M577.857,324.204c0,0-6.062-9.233-20.03-3.511C557.827,320.693,563.545,331.033,577.857,324.204z"/>
	<path fill="#006837" d="M550.271,292.689c0,0-9.747-5.169-19.229,6.581C531.042,299.27,541.025,305.568,550.271,292.689z"/>
	<path fill="#006837" d="M466.256,368.017c0,0-6.062-9.233-20.029-3.505C446.227,364.512,451.943,374.846,466.256,368.017z"/>
	<path fill="#006837" d="M438.681,336.496c0,0-9.764-5.164-19.234,6.587C419.446,343.083,429.425,349.375,438.681,336.496z"/>
	<path fill="#006837" d="M366.281,331.484c0,0,1.541,10.938,16.604,11.728C382.886,343.212,382.146,331.445,366.281,331.484z"/>
	<path fill="#006837" d="M539.18,191.151c0,0,9.403,5.802,19.635-5.299C558.814,185.852,549.277,178.904,539.18,191.151z"/>
	<path fill="#006837" d="M497.591,110.692c0,0-1.885,10.876,12.219,16.243C509.81,126.936,512.71,115.495,497.591,110.692z"/>
	<path fill="#006837" d="M574.262,106.031c0,0-10.345-3.866-18.229,9.007C556.032,115.038,566.744,119.999,574.262,106.031z"/>
	
		<path fill="none" stroke="#42210B" stroke-width="0.8016" stroke-linecap="round" stroke-linejoin="round" stroke-miterlimit="10" d="
		M507.941,445.36c0,0-8.308,29.579,2.63,42.103c0,0-15.097,67.427-2.63,67.427c9.792,0-0.92-28.597,9.183-28.597
		c8.454,0,4.888,62.72,4.888,62.72"/>
	
		<path fill="none" stroke="#42210B" stroke-width="0.8016" stroke-linecap="round" stroke-linejoin="round" stroke-miterlimit="10" d="
		M522.757,432.08c-1.321-20.611-4.211-50.777,3.499-48.858c7.703,1.931,6.553,27.706,9.081,58.571"/>
</g>
</svg>
