<?xml version="1.0" encoding="utf-8"?>
<!-- Generator: Adobe Illustrator 16.0.0, SVG Export Plug-In . SVG Version: 6.00 Build 0)  -->
<!DOCTYPE svg PUBLIC "-//W3C//DTD SVG 1.1//EN" "http://www.w3.org/Graphics/SVG/1.1/DTD/svg11.dtd">
<svg version="1.1" id="Layer_1" xmlns="http://www.w3.org/2000/svg" xmlns:xlink="http://www.w3.org/1999/xlink" x="0px" y="0px"
	 width="1024px" height="768px" viewBox="0 0 1024 768" enable-background="new 0 0 1024 768" xml:space="preserve">
<g>
	<path fill="#00AF41" d="M653.745,208.883c0,72.6-58.852,131.443-131.451,131.443c-72.6,0-131.443-58.843-131.443-131.443
		c0-72.592,58.843-131.451,131.443-131.451C594.894,77.432,653.745,136.291,653.745,208.883z"/>
	<path fill="#00AF41" d="M699.063,504.819c0,46.432-75.217,84.06-168.007,84.06c-92.814,0-168.027-37.628-168.027-84.06
		c0-46.415,75.213-84.035,168.027-84.035C623.847,420.784,699.063,458.404,699.063,504.819z"/>
	<path fill="#00AF41" d="M750.896,385.997c0,77.649-104.938,140.594-234.356,140.594c-129.451,0-234.373-62.944-234.373-140.594
		c0-77.642,104.922-140.583,234.373-140.583C645.958,245.415,750.896,308.355,750.896,385.997z"/>
	<path fill="#00AF41" d="M743.15,284.491c0,50.569-40.99,91.558-91.551,91.558s-91.565-40.989-91.565-91.558
		c0-50.584,41.005-91.565,91.565-91.565S743.15,233.907,743.15,284.491z"/>
	<path fill="#00AF41" d="M454.592,408.38c0,50.568-40.981,91.559-91.562,91.559c-50.572,0-91.562-40.99-91.562-91.559
		s40.989-91.558,91.562-91.558C413.61,316.822,454.592,357.812,454.592,408.38z"/>
	<path fill="#00AF41" d="M453.079,331.043c0,49.72-40.317,90.045-90.05,90.045c-49.732,0-90.025-40.325-90.025-90.045
		c0-49.729,40.293-90.046,90.025-90.046C412.762,240.997,453.079,281.314,453.079,331.043z"/>
	<path fill="#00AF41" d="M751.601,448.266c0,49.736-59.547,90.045-133.031,90.045s-133.071-40.309-133.071-90.045
		c0-49.721,59.587-90.038,133.071-90.038S751.601,398.545,751.601,448.266z"/>
	<line fill="#303030" x1="520.449" y1="138.164" x2="520.449" y2="583.493"/>
	<path fill="#491B03" d="M526.287,133.762l28.537,547.372c0.04,8.33-14.461,7.354-33.187,8.267
		c-18.71,0.94-34.704,1.024-36.14-8.267c-0.16-1.104,7.522-96.56,7.562-97.641l21.615-447.226c0.319-6.562,3.744-9.523,6.361-9.403
		C523.43,126.968,525.967,127.752,526.287,133.762z"/>
	<path fill="#491B03" d="M397.813,405.411l59.532,128.322l-2.105-3.857l75.553,101.941c4.273,5.766,3.072,13.912-2.709,18.194
		c-5.662,4.201-13.648,3.08-17.97-2.421l-78.37-99.805l-0.456-0.593c-0.784-0.992-1.336-2.129-1.657-3.272l-37.78-136.31
		c-0.468-1.704,0.536-3.457,2.208-3.929C395.592,403.259,397.165,404.026,397.813,405.411z"/>
	<path fill="#491B03" d="M507.881,638.479c0,0,3.226-4.97,8.887-13.645c5.639-8.707,13.736-21.095,23.764-35.768
		c9.912-14.777,21.76-31.822,34.748-50.005c3.321-4.577,6.674-9.211,10.059-13.908l5.467-7.258l0.68-0.913l0.336-0.456
		c0.576-0.88-0.664,1.089-0.512,0.836l0.063-0.107l0.128-0.248c0.32-0.568,0.841-1.385,0.969-1.745
		c0.141-0.72,0.264-0.563,0.744-2.12c3.346-9.724,5.979-21.523,8.523-32.783c5.089-22.819,9.366-46.019,13.584-67.714
		c4.029-21.735,7.799-42.038,11.031-59.436c6.418-34.843,10.676-58.067,10.676-58.067c0.432-2.329,2.657-3.874,4.994-3.441
		c2.176,0.4,3.673,2.417,3.48,4.577c0,0-2.064,23.592-5.842,58.875c-4.041,35.284-9.323,82.235-17.262,129.25
		c-2.125,11.884-3.961,23.335-7.506,35.827c-0.297,1.265-1.354,4.05-2.217,6.066l-1.024,2.089l-0.112,0.239l-0.072,0.121
		l-0.656,1.063l-0.232,0.448l-0.487,0.912l-3.865,7.195c-2.562,5.018-5.078,9.979-7.562,14.856
		c-9.915,19.771-19.167,38.24-27.065,54.062c-7.922,15.877-14.709,28.978-19.479,38.141c-4.729,9.179-7.434,14.421-7.434,14.421
		c-5.395,10.476-18.23,14.597-28.706,9.211c-10.451-5.386-14.581-18.222-9.203-28.689
		C507.104,639.728,507.505,639.056,507.881,638.479z"/>
	<path fill="#491B03" d="M502.959,375.033l-39.893-64.813l-0.304-0.488l-0.136-0.272l-21.659-57.539
		c-0.172-0.472,0.068-1.008,0.54-1.185c0.456-0.16,0.944,0.032,1.152,0.448l27.625,54.914l-0.432-0.76l48.8,58.403
		c3.441,4.105,2.889,10.22-1.225,13.653c-4.097,3.433-10.219,2.889-13.66-1.225C503.479,375.817,503.195,375.417,502.959,375.033z"
		/>
	<path fill="#491B03" d="M419.196,502.099l-50.849-56.639l-0.376-0.436l-0.184-0.24l-31.606-52.729
		c-0.252-0.432-0.112-1.008,0.324-1.265c0.408-0.248,0.937-0.151,1.208,0.232l37.004,49.088l-0.568-0.664l58.459,48.728
		c4.121,3.426,4.682,9.539,1.236,13.652c-3.425,4.105-9.527,4.666-13.641,1.241C419.86,502.771,419.492,502.419,419.196,502.099z"/>
	<path fill="#491B03" d="M424.694,491.344l5.682-40.47l0.024,0.472l-2.969-32.891c-0.032-0.264,0.184-0.504,0.44-0.536
		c0.272-0.023,0.48,0.152,0.544,0.408l6.434,32.371l0.02,0.168v0.312l0.168,40.87c0.02,2.881-2.301,5.218-5.182,5.233
		c-2.865,0.016-5.202-2.309-5.226-5.186C424.63,491.855,424.654,491.583,424.694,491.344z"/>
	<path fill="#491B03" d="M597.679,502.234l45.278-61.188l-0.392,0.784l24.315-56.45c0.204-0.473,0.748-0.681,1.221-0.488
		c0.432,0.184,0.66,0.688,0.521,1.128l-18.223,58.708L650.296,445l-0.288,0.512l-35.988,67.07c-2.528,4.722-8.418,6.49-13.116,3.953
		c-4.722-2.536-6.506-8.395-3.961-13.124C597.158,503.011,597.431,502.587,597.679,502.234z"/>
	<path fill="#491B03" d="M611.943,440.822l0.172-40.877l0.012-0.312l0.021-0.168l6.422-32.378c0.052-0.272,0.316-0.448,0.597-0.38
		c0.252,0.044,0.42,0.268,0.399,0.516l-2.977,32.883l0.024-0.464l5.701,40.469c0.38,2.857-1.588,5.481-4.441,5.894
		c-2.857,0.396-5.494-1.588-5.878-4.437C611.947,441.327,611.943,441.055,611.943,440.822z"/>
	<path fill="#491B03" d="M511.786,319.455l54.49-98.464l-0.292,0.816l12.928-37.876c0.168-0.48,0.688-0.752,1.177-0.576
		c0.424,0.152,0.688,0.592,0.608,1.032l-6.61,39.469l-0.12,0.384l-0.184,0.432l-44.663,103.31c-2.108,4.91-7.811,7.159-12.725,5.038
		c-4.897-2.121-7.162-7.811-5.033-12.708C511.474,320.007,511.634,319.719,511.786,319.455z"/>
</g>
</svg>
